<mxfile host="app.diagrams.net" agent="Mozilla/5.0 (Windows NT 10.0; Win64; x64) AppleWebKit/537.36 (KHTML, like Gecko) Chrome/130.0.0.0 Safari/537.36" version="24.8.3">
  <diagram id="prtHgNgQTEPvFCAcTncT" name="Page-1">
    <mxGraphModel dx="792" dy="791" grid="1" gridSize="10" guides="1" tooltips="1" connect="1" arrows="1" fold="1" page="1" pageScale="1" pageWidth="827" pageHeight="1169" math="0" shadow="0">
      <root>
        <mxCell id="0" />
        <mxCell id="1" parent="0" />
        <mxCell id="dNxyNK7c78bLwvsdeMH5-19" value="" style="swimlane;html=1;childLayout=stackLayout;resizeParent=1;resizeParentMax=0;horizontal=0;startSize=20;horizontalStack=0;" parent="1" vertex="1">
          <mxGeometry y="60" width="660" height="350" as="geometry" />
        </mxCell>
        <mxCell id="dNxyNK7c78bLwvsdeMH5-20" value="Instrutor" style="swimlane;html=1;startSize=20;horizontal=0;" parent="dNxyNK7c78bLwvsdeMH5-19" vertex="1">
          <mxGeometry x="20" width="640" height="110" as="geometry" />
        </mxCell>
        <mxCell id="-qL-BC5kmhYfBlO_x5NQ-1" value="" style="ellipse;html=1;shape=startState;fillColor=#000000;strokeColor=#ff0000;" parent="dNxyNK7c78bLwvsdeMH5-20" vertex="1">
          <mxGeometry x="40" y="40" width="30" height="30" as="geometry" />
        </mxCell>
        <mxCell id="-qL-BC5kmhYfBlO_x5NQ-3" value="Cria Curso" style="html=1;dashed=0;whiteSpace=wrap;" parent="dNxyNK7c78bLwvsdeMH5-20" vertex="1">
          <mxGeometry x="140" y="30" width="100" height="50" as="geometry" />
        </mxCell>
        <mxCell id="-qL-BC5kmhYfBlO_x5NQ-2" value="" style="edgeStyle=orthogonalEdgeStyle;html=1;verticalAlign=bottom;endArrow=open;endSize=8;strokeColor=#ff0000;rounded=0;" parent="dNxyNK7c78bLwvsdeMH5-20" source="-qL-BC5kmhYfBlO_x5NQ-1" target="-qL-BC5kmhYfBlO_x5NQ-3" edge="1">
          <mxGeometry relative="1" as="geometry">
            <mxPoint x="140" y="60" as="targetPoint" />
          </mxGeometry>
        </mxCell>
        <mxCell id="-qL-BC5kmhYfBlO_x5NQ-8" value="" style="ellipse;html=1;shape=endState;fillColor=#000000;strokeColor=#ff0000;" parent="dNxyNK7c78bLwvsdeMH5-20" vertex="1">
          <mxGeometry x="570" y="40" width="30" height="30" as="geometry" />
        </mxCell>
        <mxCell id="-qL-BC5kmhYfBlO_x5NQ-5" value="" style="edgeStyle=orthogonalEdgeStyle;rounded=0;orthogonalLoop=1;jettySize=auto;html=1;" parent="dNxyNK7c78bLwvsdeMH5-19" source="-qL-BC5kmhYfBlO_x5NQ-3" target="-qL-BC5kmhYfBlO_x5NQ-4" edge="1">
          <mxGeometry relative="1" as="geometry" />
        </mxCell>
        <mxCell id="dNxyNK7c78bLwvsdeMH5-21" value="Aluno" style="swimlane;html=1;startSize=20;horizontal=0;" parent="dNxyNK7c78bLwvsdeMH5-19" vertex="1">
          <mxGeometry x="20" y="110" width="640" height="120" as="geometry" />
        </mxCell>
        <mxCell id="-qL-BC5kmhYfBlO_x5NQ-18" value="" style="edgeStyle=orthogonalEdgeStyle;rounded=0;orthogonalLoop=1;jettySize=auto;html=1;" parent="dNxyNK7c78bLwvsdeMH5-21" source="-qL-BC5kmhYfBlO_x5NQ-4" target="-qL-BC5kmhYfBlO_x5NQ-17" edge="1">
          <mxGeometry relative="1" as="geometry" />
        </mxCell>
        <mxCell id="-qL-BC5kmhYfBlO_x5NQ-4" value="Compra curso" style="html=1;dashed=0;whiteSpace=wrap;" parent="dNxyNK7c78bLwvsdeMH5-21" vertex="1">
          <mxGeometry x="140" y="50" width="100" height="50" as="geometry" />
        </mxCell>
        <mxCell id="-qL-BC5kmhYfBlO_x5NQ-20" value="" style="edgeStyle=orthogonalEdgeStyle;rounded=0;orthogonalLoop=1;jettySize=auto;html=1;" parent="dNxyNK7c78bLwvsdeMH5-21" source="-qL-BC5kmhYfBlO_x5NQ-17" target="-qL-BC5kmhYfBlO_x5NQ-19" edge="1">
          <mxGeometry relative="1" as="geometry" />
        </mxCell>
        <mxCell id="-qL-BC5kmhYfBlO_x5NQ-17" value="Completa curso" style="html=1;dashed=0;whiteSpace=wrap;" parent="dNxyNK7c78bLwvsdeMH5-21" vertex="1">
          <mxGeometry x="260" y="50" width="100" height="50" as="geometry" />
        </mxCell>
        <mxCell id="-qL-BC5kmhYfBlO_x5NQ-19" value="Avalia Curso" style="html=1;dashed=0;whiteSpace=wrap;" parent="dNxyNK7c78bLwvsdeMH5-21" vertex="1">
          <mxGeometry x="390" y="50" width="100" height="50" as="geometry" />
        </mxCell>
        <mxCell id="-qL-BC5kmhYfBlO_x5NQ-12" value="Sistema" style="swimlane;html=1;startSize=20;horizontal=0;" parent="dNxyNK7c78bLwvsdeMH5-19" vertex="1">
          <mxGeometry x="20" y="230" width="640" height="120" as="geometry" />
        </mxCell>
        <mxCell id="-qL-BC5kmhYfBlO_x5NQ-21" value="Gerar Certificado" style="html=1;dashed=0;whiteSpace=wrap;" parent="-qL-BC5kmhYfBlO_x5NQ-12" vertex="1">
          <mxGeometry x="390" y="35" width="100" height="50" as="geometry" />
        </mxCell>
        <mxCell id="-qL-BC5kmhYfBlO_x5NQ-22" value="" style="edgeStyle=orthogonalEdgeStyle;rounded=0;orthogonalLoop=1;jettySize=auto;html=1;" parent="dNxyNK7c78bLwvsdeMH5-19" source="-qL-BC5kmhYfBlO_x5NQ-19" target="-qL-BC5kmhYfBlO_x5NQ-21" edge="1">
          <mxGeometry relative="1" as="geometry" />
        </mxCell>
        <mxCell id="-qL-BC5kmhYfBlO_x5NQ-23" style="edgeStyle=orthogonalEdgeStyle;rounded=0;orthogonalLoop=1;jettySize=auto;html=1;entryX=0;entryY=1;entryDx=0;entryDy=0;" parent="dNxyNK7c78bLwvsdeMH5-19" source="-qL-BC5kmhYfBlO_x5NQ-21" target="-qL-BC5kmhYfBlO_x5NQ-8" edge="1">
          <mxGeometry relative="1" as="geometry" />
        </mxCell>
      </root>
    </mxGraphModel>
  </diagram>
</mxfile>
